PathFileType	4	(X/Y/Z)	Kaydara																																																																																																																									
DataRate	CameraRate	NumFrames	NumMarkers	Units	OrigDataRate	OrigDataStartFrame	OrigNumFrames																																																																																																																					
30	30	4	41	mm	30	154	141																																																																																																																					
Frame#	Time	SALE_LFHD			SALE_RFHD			SALE_LBHD			SALE_RBHD			SALE_LFTShould			SALE_RFTShould			SALE_LRRShould			SALE_RRRShould			SALE_T10			SALE_STRN			SALE_TRUN			SALE_LSHO			SALE_LUPA			SALE_LELB			SALE_LFRM			SALE_LWRA			SALE_LWRB			SALE_LFIN			SALE_RSHO			SALE_RUPA			SALE_RELB			SALE_RFRM			SALE_RWRB			SALE_RFIN			SALE_LFWT			SALE_RFWT			SALE_LBWT			SALE_RBWT			SALE_LTHI			SALE_LKNE			SALE_RWRA			SALE_LSHN			SALE_LANK			SALE_LHEE			SALE_LTOE			SALE_RTHI			SALE_RKNE			SALE_RSHN			SALE_RANK			SALE_RHEE			SALE_RTOE		
		X1	Y1	Z1	X2	Y2	Z2	X3	Y3	Z3	X4	Y4	Z4	X5	Y5	Z5	X6	Y6	Z6	X7	Y7	Z7	X8	Y8	Z8	X9	Y9	Z9	X10	Y10	Z10	X11	Y11	Z11	X12	Y12	Z12	X13	Y13	Z13	X14	Y14	Z14	X15	Y15	Z15	X16	Y16	Z16	X17	Y17	Z17	X18	Y18	Z18	X19	Y19	Z19	X20	Y20	Z20	X21	Y21	Z21	X22	Y22	Z22	X23	Y23	Z23	X24	Y24	Z24	X25	Y25	Z25	X26	Y26	Z26	X27	Y27	Z27	X28	Y28	Z28	X29	Y29	Z29	X30	Y30	Z30	X31	Y31	Z31	X32	Y32	Z32	X33	Y33	Z33	X34	Y34	Z34	X35	Y35	Z35	X36	Y36	Z36	X37	Y37	Z37	X38	Y38	Z38	X39	Y39	Z39	X40	Y40	Z40	X41	Y41	Z41
																																																																																																																												
124	5.1	183.55532	1591.75323	1860.83649	50.80211	1593.9325	1862.23297	177.89148	1563.32855	1729.25537	50.32663	1564.48456	1737.52975	183.02513	1332.68066	1858.07053	41.66289	1324.59213	1844.01443	186.99339	1378.64426	1736.27167	39.66868	1379.40933	1730.48325	119.66973	1218.35938	1683.33603	105.88377	1260.74806	1905.34134	102.35023	1176.55273	1950.81268	299.21274	1364.65805	1791.59592	367.75276	1160.59647	1811.45645	375.40817	1050.69359	1820.30746	414.12781	997.10472	1921.62643	365.81402	962.01752	2074.39087	433.50945	930.93826	2053.62061	433.11348	947.9319	2113.55988	-54.05909	1351.25824	1762.12982	-66.14779	1139.41551	1666.05743	-124.87514	1042.77634	1675.65445	-125.41864	937.81845	1638.0632	-172.39697	802.37938	1626.39496	-196.90861	745.40947	1654.21936	245.46505	919.15665	1859.02756	-30.12897	898.87642	1894.34402	157.0313	960.44373	1698.7529	-15.95485	942.21107	1715.14526	211.22252	639.41185	1672.37137	214.68023	458.2925	1720.01083	-145.93935	783.70003	1696.29303	195.15882	260.88055	1659.11041	178.92925	101.22755	1554.07715	135.10203	65.92741	1478.1485	156.39296	46.38633	1670.50735	-37.89085	618.2431	1833.95981	-11.28789	523.41896	2007.2934	37.22707	353.22357	2079.04099	-2.3739	107.17981	2145.55588	13.77412	107.46338	2276.9902	52.24236	17.24589	2106.68335
125	5.133	179.84287	1585.59692	1910.55832	47.05364	1587.21329	1912.86682	173.5671	1559.34326	1778.65372	45.91885	1559.80209	1787.72217	181.10239	1330.06882	1905.68039	39.3727	1320.49011	1894.02878	182.48564	1371.03104	1782.81342	35.47043	1371.55365	1778.7912	115.94568	1209.57336	1734.90921	104.24477	1259.55093	1955.94345	101.25455	1177.40128	2004.58389	296.43255	1358.517	1835.59692	365.15591	1155.20744	1856.47247	372.65701	1045.54482	1866.31287	411.76296	996.24168	1970.17853	363.85227	970.29915	2124.62662	431.06308	937.11311	2105.84778	431.22654	959.23233	2163.65921	-57.95135	1343.89328	1812.50519	-67.67915	1132.71187	1718.08838	-126.21447	1035.37605	1727.02179	-126.26851	930.88295	1689.17145	-172.76472	796.0714	1676.14166	-196.52571	738.1543	1700.96405	244.16595	912.50397	1917.99423	-34.24386	898.30269	1953.00598	157.52111	953.75099	1757.54959	-15.00687	940.31654	1774.08752	209.5229	632.52796	1730.62363	212.98042	450.82085	1779.74213	-146.64342	776.6494	1746.79733	195.62263	259.00007	1695.59845	185.67331	114.75824	1568.64075	145.00455	89.51907	1487.05841	158.81347	45.01609	1674.49158	-44.4485	626.82201	1901.60965	-11.72904	527.17674	2068.68835	38.8622	340.38643	2134.42764	-4.12918	85.32287	2173.51654	17.55076	76.67765	2304.97482	44.17202	3.37181	2125.41077
126	5.167	176.39273	1584.63486	1959.7702	43.57388	1586.59836	1962.95883	169.08497	1560.18829	1827.49786	41.40897	1561.08734	1837.47467	177.92463	1332.49191	1952.42477	35.0485	1322.3027	1944.32663	176.644	1367.83554	1828.13049	28.99785	1367.73941	1827.1907	109.79714	1204.37408	1786.87347	101.35687	1264.41368	2007.31262	98.86573	1184.3335	2059.34418	292.23593	1355.87036	1877.62817	358.86013	1151.80916	1895.97	365.54134	1041.87614	1907.31766	406.59737	992.58102	2010.86639	361.96781	970.09262	2166.54755	427.64908	934.60487	2147.02667	430.16396	958.53882	2204.3721	-63.70579	1340.60059	1864.34189	-72.83312	1127.85011	1776.23642	-129.48788	1029.75906	1788.24005	-129.10867	925.05981	1751.22772	-173.43132	790.00168	1741.23688	-194.51195	730.96878	1765.14145	242.2773	911.44516	1979.41299	-35.47877	901.24016	2013.04062	158.61526	952.30377	1817.81509	-16.04267	941.28059	1833.34991	208.07653	621.06487	1803.23685	210.58958	440.20416	1861.98685	-143.9419	769.31946	1808.93768	199.1238	261.67532	1745.81573	188.83146	140.50249	1595.55771	147.11371	130.73139	1513.60504	161.24947	41.33377	1684.90845	-44.08518	621.11523	1959.16351	-8.32919	521.17641	2119.81155	44.08494	338.83091	2177.37839	2.14412	81.08456	2193.21335	19.24369	45.78135	2329.81827	48.911	18.95096	2140.71701
127	5.2	172.98252	1586.05011	2008.06183	40.34579	1588.9267	2012.00378	164.85598	1563.43964	1875.74493	37.21802	1564.84512	1886.45599	174.84447	1338.11234	1999.94431	32.21159	1327.05048	1995.22705	168.78557	1369.44412	1875.784	22.08508	1368.2666	1878.26935	102.6007	1205.28625	1838.67004	99.93992	1271.68556	2059.41864	99.42894	1192.78969	2113.69995	286.71951	1357.86896	1919.85504	349.35699	1152.3629	1932.68066	354.69166	1042.79335	1944.29428	398.62564	988.53317	2044.86267	359.82113	961.71783	2201.3208	422.91451	924.62967	2177.88483	429.11186	946.25816	2235.98068	-69.12089	1341.98868	1918.73688	-81.4541	1126.00693	1838.73138	-133.33221	1027.23717	1856.59378	-132.74381	921.19919	1822.61841	-174.83393	785.64995	1821.76788	-190.89222	725.16891	1847.43271	239.86546	913.22128	2036.25549	-35.55346	912.50473	2067.33368	159.89172	951.69075	1874.27673	-13.03467	951.19972	1885.85999	205.08749	604.90776	1887.86301	218.2198	430.01434	1958.26447	-139.25737	766.55418	1885.47043	207.7149	270.80784	1814.76654	194.56591	177.6203	1647.49481	152.20984	189.72633	1570.17334	162.45743	43.61955	1703.10638	-51.30167	635.48615	2005.4538	-7.46939	529.31831	2168.88153	50.01637	336.60683	2213.02002	5.36102	81.53727	2216.67313	25.31141	37.4648	2334.37225	48.5289	19.55888	2145.66742
